<?xml version="1.0" encoding="UTF-8"?> <svg xmlns="http://www.w3.org/2000/svg" width="51" height="36" viewBox="0 0 51 36" fill="none"><path d="M6.125 4.875C6.125 3.71468 6.58594 2.60188 7.40641 1.78141C8.22688 0.960936 9.33968 0.5 10.5 0.5C11.6603 0.5 12.7731 0.960936 13.5936 1.78141C14.4141 2.60188 14.875 3.71468 14.875 4.875C14.875 6.03532 14.4141 7.14812 13.5936 7.96859C12.7731 8.78906 11.6603 9.25 10.5 9.25C9.33968 9.25 8.22688 8.78906 7.40641 7.96859C6.58594 7.14812 6.125 6.03532 6.125 4.875ZM5.5 17.1953C4.71875 18.0703 4.25 19.2344 4.25 20.5C4.25 21.7656 4.71875 22.9297 5.5 23.8047V17.1875V17.1953ZM16.7812 13.3438C14.4609 15.3984 13 18.4062 13 21.75C13 24.4297 13.9375 26.8906 15.5 28.8203V30.5C15.5 31.8828 14.3828 33 13 33H8C6.61719 33 5.5 31.8828 5.5 30.5V28.4062C2.54688 27 0.5 23.9922 0.5 20.5C0.5 15.6641 4.41406 11.75 9.25 11.75H11.75C13.625 11.75 15.3594 12.3359 16.7812 13.3359V13.3438ZM35.5 30.5V28.8203C37.0625 26.8906 38 24.4297 38 21.75C38 18.4062 36.5391 15.3984 34.2188 13.3359C35.6406 12.3359 37.375 11.75 39.25 11.75H41.75C46.5859 11.75 50.5 15.6641 50.5 20.5C50.5 23.9922 48.4531 27 45.5 28.4062V30.5C45.5 31.8828 44.3828 33 43 33H38C36.6172 33 35.5 31.8828 35.5 30.5ZM36.125 4.875C36.125 3.71468 36.5859 2.60188 37.4064 1.78141C38.2269 0.960936 39.3397 0.5 40.5 0.5C41.6603 0.5 42.7731 0.960936 43.5936 1.78141C44.4141 2.60188 44.875 3.71468 44.875 4.875C44.875 6.03532 44.4141 7.14812 43.5936 7.96859C42.7731 8.78906 41.6603 9.25 40.5 9.25C39.3397 9.25 38.2269 8.78906 37.4064 7.96859C36.5859 7.14812 36.125 6.03532 36.125 4.875ZM45.5 17.1953V23.8125C46.2812 22.9297 46.75 21.7734 46.75 20.5078C46.75 19.2422 46.2812 18.0781 45.5 17.2031V17.1953ZM25.5 0.5C26.8261 0.5 28.0979 1.02678 29.0355 1.96447C29.9732 2.90215 30.5 4.17392 30.5 5.5C30.5 6.82608 29.9732 8.09785 29.0355 9.03553C28.0979 9.97322 26.8261 10.5 25.5 10.5C24.1739 10.5 22.9021 9.97322 21.9645 9.03553C21.0268 8.09785 20.5 6.82608 20.5 5.5C20.5 4.17392 21.0268 2.90215 21.9645 1.96447C22.9021 1.02678 24.1739 0.5 25.5 0.5ZM19.25 21.75C19.25 23.0156 19.7188 24.1719 20.5 25.0547V18.4375C19.7188 19.3203 19.25 20.4766 19.25 21.7422V21.75ZM30.5 18.4453V25.0625C31.2812 24.1797 31.75 23.0234 31.75 21.7578C31.75 20.4922 31.2812 19.3281 30.5 18.4531V18.4453ZM35.5 21.75C35.5 25.2422 33.4531 28.25 30.5 29.6562V33C30.5 34.3828 29.3828 35.5 28 35.5H23C21.6172 35.5 20.5 34.3828 20.5 33V29.6562C17.5469 28.25 15.5 25.2422 15.5 21.75C15.5 16.9141 19.4141 13 24.25 13H26.75C31.5859 13 35.5 16.9141 35.5 21.75Z" fill="black"></path></svg> 