<?xml version="1.0" encoding="UTF-8"?> <svg xmlns="http://www.w3.org/2000/svg" width="33" height="44" viewBox="0 0 33 44" fill="none"><path d="M16.5 0.125C7.87402 0.125 0.875 6.4248 0.875 14.1875C0.875 26.6875 16.5 43.875 16.5 43.875C16.5 43.875 32.125 26.6875 32.125 14.1875C32.125 6.4248 25.126 0.125 16.5 0.125ZM16.5 22C15.2639 22 14.0555 21.6334 13.0277 20.9467C11.9999 20.2599 11.1988 19.2838 10.7258 18.1418C10.2527 16.9997 10.1289 15.7431 10.3701 14.5307C10.6112 13.3183 11.2065 12.2047 12.0806 11.3306C12.9547 10.4565 14.0683 9.86125 15.2807 9.62009C16.4931 9.37893 17.7497 9.5027 18.8918 9.97575C20.0338 10.4488 21.0099 11.2499 21.6967 12.2777C22.3834 13.3055 22.75 14.5139 22.75 15.75C22.7482 17.407 22.0891 18.9957 20.9174 20.1674C19.7457 21.3391 18.157 21.9982 16.5 22Z" fill="black"></path></svg> 