<?xml version="1.0" encoding="UTF-8"?> <svg xmlns="http://www.w3.org/2000/svg" width="45" height="45" viewBox="0 0 45 45" fill="none"><path d="M43.7159 31.7988L33.8722 27.5801C33.4517 27.4009 32.9843 27.3631 32.5405 27.4725C32.0966 27.5818 31.7003 27.8324 31.4112 28.1865L27.0519 33.5127C20.2102 30.2869 14.7043 24.781 11.4785 17.9394L16.8047 13.58C17.1595 13.2914 17.4106 12.8951 17.52 12.4511C17.6294 12.007 17.5912 11.5394 17.4111 11.119L13.1924 1.27529C12.9947 0.822133 12.6451 0.452146 12.2039 0.229126C11.7627 0.00610658 11.2575 -0.0559667 10.7754 0.0536098L1.63477 2.16299C1.16997 2.27032 0.755284 2.53202 0.458381 2.90538C0.161477 3.27875 -0.000107069 3.74172 5.32284e-08 4.21875C5.32284e-08 26.7627 18.2725 45 40.7812 45C41.2584 45.0003 41.7216 44.8388 42.0951 44.5419C42.4687 44.245 42.7305 43.8302 42.8379 43.3652L44.9473 34.2246C45.0561 33.7402 44.9927 33.2329 44.768 32.7902C44.5433 32.3474 44.1712 31.9969 43.7159 31.7988Z" fill="black"></path></svg> 